<svg xmlns="http://www.w3.org/2000/svg" viewBox="0 0 320 104"><defs><linearGradient id="b" x2="0" y2="1"><stop stop-color="#9ada64"/><stop offset="1" stop-color="#50ad42"/></linearGradient></defs><path d="M55 25C31-5 0 13 8 38c-12 20 4 49 27 43q10-1 20-9h210c26 26 58 4 48-21 9-28-21-49-47-26Z" fill="#377a2b" transform="translate(0 8)"/><path d="M55 25C31-5 0 13 8 38c-12 20 4 49 27 43q10-1 20-9h210c26 26 58 4 48-21 9-28-21-49-47-26Z" fill="url(#b)" stroke="#458a30" stroke-width="2.5"/><path d="M57 31C35 4 9 19 15 39M267 31c19-19 38-10 40 7M60 32h196" fill="none" stroke="#d8ffb0" stroke-width="3" stroke-linecap="round"/></svg>
