<svg xmlns="http://www.w3.org/2000/svg">
<symbol id="paw" viewBox="0 0 48 48"><g fill="#b9713e" stroke="#744225" stroke-width="1.8"><path d="M14 30c1-7 6-12 10-12s9 5 10 12c2 7-4 9-10 6-6 3-12 1-10-6Z"/><ellipse cx="10" cy="19" rx="5" ry="6" transform="rotate(-24 10 19)"/><ellipse cx="19" cy="10" rx="5" ry="6"/><ellipse cx="30" cy="10" rx="5" ry="6"/><ellipse cx="39" cy="19" rx="5" ry="6" transform="rotate(24 39 19)"/></g><path d="M19 27q4-6 8-2" fill="none" stroke="#f7c58a" stroke-width="2.5" stroke-linecap="round"/></symbol>
<symbol id="home" viewBox="0 0 48 48"><path d="M9 22v19h30V22L24 10Z" fill="#e6a365" stroke="#714329" stroke-width="2.5" stroke-linejoin="round"/><path d="m5 23 19-17 19 17" fill="none" stroke="#714329" stroke-width="5" stroke-linecap="round" stroke-linejoin="round"/><path d="M18 41V30a6 6 0 0 1 12 0v11" fill="#74452d"/><path d="M16 21h16" stroke="#fff0cf" stroke-width="2.5" stroke-linecap="round"/></symbol>
<symbol id="hint" viewBox="0 0 48 48"><path d="M10 17c-8-8-14 5-5 8-3 9 10 12 12 3l16-7c7 7 15-3 8-8 2-9-11-11-12-3Z" transform="translate(3 7) scale(.9)" fill="#fff1ce" stroke="#8c552d" stroke-width="2.4" stroke-linejoin="round"/><path d="m35 3 2 5 5 2-5 2-2 5-2-5-5-2 5-2Z" fill="#e6a52d"/><path d="m10 5 1 3 3 1-3 1-1 3-1-3-3-1 3-1Z" fill="#e6a52d"/></symbol>
<symbol id="undo" viewBox="0 0 48 48"><path d="M13 18h14c16 0 18 22 2 24-8 1-13-4-10-10 2-5 10-3 8 2" fill="none" stroke="#955328" stroke-width="6" stroke-linecap="round"/><path d="m17 7-11 11 11 10" fill="none" stroke="#955328" stroke-width="6" stroke-linecap="round" stroke-linejoin="round"/><path d="M23 19h5q10 0 11 10" fill="none" stroke="#e8b479" stroke-width="2" stroke-linecap="round"/></symbol>
<symbol id="restart" viewBox="0 0 48 48"><path d="M10 15a18 18 0 1 1-2 18" fill="none" stroke="#8d5734" stroke-width="3.5" stroke-linecap="round"/><path d="M9 6v11h11" fill="none" stroke="#8d5734" stroke-width="3.5" stroke-linecap="round" stroke-linejoin="round"/><g fill="#c0814d"><path d="M18 30c0-5 4-9 7-9s7 4 7 9c0 4-4 4-7 2-3 2-7 2-7-2Z"/><ellipse cx="17" cy="21" rx="2.5" ry="3"/><ellipse cx="23" cy="16" rx="2.5" ry="3"/><ellipse cx="30" cy="17" rx="2.5" ry="3"/><ellipse cx="35" cy="23" rx="2.5" ry="3"/></g></symbol>
<symbol id="settings" viewBox="0 0 48 48"><g stroke="#865133" stroke-width="6" stroke-linecap="round"><path d="M24 6v5m0 26v5M6 24h5m26 0h5M11 11l4 4m18 18 4 4M11 37l4-4m18-18 4-4"/></g><circle cx="24" cy="24" r="14" fill="#d6a06b" stroke="#865133" stroke-width="3"/><circle cx="24" cy="24" r="6" fill="#fff4dc" stroke="#865133" stroke-width="2"/></symbol>
<symbol id="sound" viewBox="0 0 48 48"><path d="M6 18h8L25 9v30l-11-9H6Z" fill="#dfab72" stroke="#805031" stroke-width="2.5" stroke-linejoin="round"/><path d="M32 16q9 8 0 16m6-23q15 15 0 30" fill="none" stroke="#805031" stroke-width="3" stroke-linecap="round"/></symbol>
<symbol id="levels" viewBox="0 0 48 48"><g fill="#eac392" stroke="#875735" stroke-width="2.5"><rect x="6" y="6" width="14" height="14" rx="4"/><rect x="28" y="6" width="14" height="14" rx="4"/><rect x="6" y="28" width="14" height="14" rx="4"/><rect x="28" y="28" width="14" height="14" rx="4"/></g></symbol>
<symbol id="close" viewBox="0 0 48 48"><path d="m14 14 20 20m0-20L14 34" stroke="#855332" stroke-width="5" stroke-linecap="round"/></symbol>
<symbol id="star" viewBox="0 0 48 48"><path d="m24 4 6 12 14 2-10 10 2 14-12-7-12 7 2-14L4 18l14-2Z" fill="#efb749" stroke="#9b6228" stroke-width="2.5" stroke-linejoin="round"/><path d="m24 11-4 9-8 1" fill="none" stroke="#ffe5a1" stroke-width="2.5" stroke-linecap="round"/></symbol>
</svg>
